<?xml version="1.0" encoding="UTF-8" standalone="no"?>
<!-- Created with Inkscape (http://www.inkscape.org/) -->

<svg
   xmlns:dc="http://purl.org/dc/elements/1.1/"
   xmlns:cc="http://creativecommons.org/ns#"
   xmlns:rdf="http://www.w3.org/1999/02/22-rdf-syntax-ns#"
   xmlns:svg="http://www.w3.org/2000/svg"
   xmlns="http://www.w3.org/2000/svg"
   xmlns:sodipodi="http://sodipodi.sourceforge.net/DTD/sodipodi-0.dtd"
   xmlns:inkscape="http://www.inkscape.org/namespaces/inkscape"
   width="23.706667mm"
   height="23.706667mm"
   viewBox="0 0 83.999996 83.999996"
   id="svg2"
   version="1.1"
   inkscape:version="0.91 r13725"
   sodipodi:docname="Logo.svg">
  <sodipodi:namedview
     id="base"
     pagecolor="#ffffff"
     bordercolor="#666666"
     borderopacity="1.0"
     inkscape:pageopacity="0.0"
     inkscape:pageshadow="2"
     inkscape:zoom="3.959798"
     inkscape:cx="94.280047"
     inkscape:cy="50.956849"
     inkscape:document-units="px"
     inkscape:current-layer="layer1"
     showgrid="false"
     showguides="true"
     inkscape:window-width="2560"
     inkscape:window-height="1377"
     inkscape:window-x="-8"
     inkscape:window-y="-8"
     inkscape:window-maximized="1"
     fit-margin-top="0"
     fit-margin-left="0"
     fit-margin-right="0"
     fit-margin-bottom="0" />
  <defs
     id="defs4">
    <filter
       style="color-interpolation-filters:sRGB"
       inkscape:label="Drop Shadow"
       id="filter4214">
      <feFlood
         flood-opacity="0.784314"
         flood-color="rgb(0,0,0)"
         result="flood"
         id="feFlood4216" />
      <feComposite
         in="flood"
         in2="SourceGraphic"
         operator="out"
         result="composite1"
         id="feComposite4218" />
      <feGaussianBlur
         in="composite1"
         stdDeviation="2"
         result="blur"
         id="feGaussianBlur4220" />
      <feOffset
         dx="5"
         dy="5"
         result="offset"
         id="feOffset4222" />
      <feComposite
         in="offset"
         in2="SourceGraphic"
         operator="atop"
         result="composite2"
         id="feComposite4224" />
    </filter>
    <filter
       style="color-interpolation-filters:sRGB"
       inkscape:label="Drop Shadow"
       id="filter4253">
      <feFlood
         flood-opacity="0.784314"
         flood-color="rgb(0,0,0)"
         result="flood"
         id="feFlood4255" />
      <feComposite
         in="flood"
         in2="SourceGraphic"
         operator="out"
         result="composite1"
         id="feComposite4257" />
      <feGaussianBlur
         in="composite1"
         stdDeviation="2"
         result="blur"
         id="feGaussianBlur4259" />
      <feOffset
         dx="-0.5"
         dy="1.02696e-015"
         result="offset"
         id="feOffset4261" />
      <feComposite
         in="offset"
         in2="SourceGraphic"
         operator="in"
         result="composite2"
         id="feComposite4263" />
    </filter>
  </defs>
  <metadata
     id="metadata7">
    <rdf:RDF>
      <cc:Work
         rdf:about="">
        <dc:format>image/svg+xml</dc:format>
        <dc:type
           rdf:resource="http://purl.org/dc/dcmitype/StillImage" />
        <dc:title />
      </cc:Work>
    </rdf:RDF>
  </metadata>
  <g
     transform="translate(-309.52287,-414.362)"
     inkscape:label="Layer 1"
     inkscape:groupmode="layer"
     id="layer1">
    <g
       id="g4259">
      <rect
         ry="21"
         rx="21"
         y="414.362"
         x="309.52289"
         height="84"
         width="84"
         id="rect3336"
         style="fill:#005d00;fill-opacity:1;stroke:none;stroke-width:0.21088929" />
      <path
         id="path4"
         d="m 330.94029,438.94596 33.24879,-12.6662 0,5.14565 -27.70732,10.68711 5.14564,3.56237 30.47806,-11.87457 0,39.18608 -30.47806,13.45784 -10.68711,-7.91638 0,-39.5819 z"
         style="fill:#ffffff;fill-opacity:1;stroke-width:0.2;stroke-linejoin:round"
         inkscape:connector-curvature="0" />
      <path
         inkscape:connector-curvature="0"
         id="path4192"
         style="font-style:normal;font-variant:normal;font-weight:normal;font-stretch:normal;font-size:medium;line-height:125%;font-family:'Roboto Slab';-inkscape-font-specification:'Roboto Slab';letter-spacing:0px;word-spacing:0px;fill:#005d00;fill-opacity:1;stroke:none;stroke-width:1px;stroke-linecap:butt;stroke-linejoin:miter;stroke-opacity:1"
         d="m 364.05818,448.64675 c 0,0 0,4.08983 0,4.08983 0,0 -1.92989,0.77407 -1.92989,0.77407 0,0 -0.17332,-2.06412 -0.17332,-2.06412 0,0 -3.77355,1.49108 -3.77355,1.49108 0,0 0,14.80888 0,14.80888 0,0 1.91417,-0.47513 1.91417,-0.47513 0,0 0,1.61819 0,1.61819 0,0 -6.21481,2.7442 -6.21481,2.7442 0,0 0,-1.64611 0,-1.64611 0,0 1.95983,-1.22041 1.95983,-1.22041 0,0 0,-14.90468 0,-14.90468 0,0 -3.91644,1.54753 -3.91644,1.54753 0,0 -0.17111,2.26207 -0.17111,2.26207 0,0 -2.07838,0.83363 -2.07838,0.83363 0,0 0,-4.25505 0,-4.25505 0,0 14.3835,-5.60398 14.3835,-5.60398 0,0 0,0 0,0" />
    </g>
  </g>
</svg>
