<?xml version="1.0" encoding="UTF-8" standalone="no"?>
<!-- Created with Inkscape (http://www.inkscape.org/) -->

<svg
   xmlns:dc="http://purl.org/dc/elements/1.1/"
   xmlns:cc="http://creativecommons.org/ns#"
   xmlns:rdf="http://www.w3.org/1999/02/22-rdf-syntax-ns#"
   xmlns:svg="http://www.w3.org/2000/svg"
   xmlns="http://www.w3.org/2000/svg"
   xmlns:sodipodi="http://sodipodi.sourceforge.net/DTD/sodipodi-0.dtd"
   xmlns:inkscape="http://www.inkscape.org/namespaces/inkscape"
   width="112.7392mm"
   height="23.706667mm"
   viewBox="0 0 399.46959 84.000001"
   id="svg4276"
   version="1.1"
   inkscape:version="0.91 r13725"
   sodipodi:docname="LogoWithWords.svg">
  <defs
     id="defs4278" />
  <sodipodi:namedview
     id="base"
     pagecolor="#ffffff"
     bordercolor="#666666"
     borderopacity="1.0"
     inkscape:pageopacity="0.0"
     inkscape:pageshadow="2"
     inkscape:zoom="1.979899"
     inkscape:cx="232.15203"
     inkscape:cy="33.555536"
     inkscape:document-units="px"
     inkscape:current-layer="layer1"
     showgrid="false"
     fit-margin-top="0"
     fit-margin-left="0"
     fit-margin-right="0"
     fit-margin-bottom="0"
     inkscape:window-width="2560"
     inkscape:window-height="1377"
     inkscape:window-x="-8"
     inkscape:window-y="-8"
     inkscape:window-maximized="1" />
  <metadata
     id="metadata4281">
    <rdf:RDF>
      <cc:Work
         rdf:about="">
        <dc:format>image/svg+xml</dc:format>
        <dc:type
           rdf:resource="http://purl.org/dc/dcmitype/StillImage" />
        <dc:title></dc:title>
      </cc:Work>
    </rdf:RDF>
  </metadata>
  <g
     inkscape:label="Layer 1"
     inkscape:groupmode="layer"
     id="layer1"
     transform="translate(-241.92857,-476.87207)">
    <g
       transform="translate(-67.594322,62.510071)"
       id="g4259">
      <rect
         ry="21"
         rx="21"
         y="414.362"
         x="309.52289"
         height="84"
         width="84"
         id="rect3336"
         style="fill:#005d00;fill-opacity:1;stroke:none;stroke-width:0.21088929" />
      <path
         id="path4"
         d="m 330.94029,438.94596 33.24879,-12.6662 0,5.14565 -27.70732,10.68711 5.14564,3.56237 30.47806,-11.87457 0,39.18608 -30.47806,13.45784 -10.68711,-7.91638 0,-39.5819 z"
         style="fill:#ffffff;fill-opacity:1;stroke-width:0.2;stroke-linejoin:round"
         inkscape:connector-curvature="0" />
      <path
         inkscape:connector-curvature="0"
         id="path4192"
         style="font-style:normal;font-variant:normal;font-weight:normal;font-stretch:normal;font-size:medium;line-height:125%;font-family:'Roboto Slab';-inkscape-font-specification:'Roboto Slab';letter-spacing:0px;word-spacing:0px;fill:#005d00;fill-opacity:1;stroke:none;stroke-width:1px;stroke-linecap:butt;stroke-linejoin:miter;stroke-opacity:1"
         d="m 364.05818,448.64675 c 0,0 0,4.08983 0,4.08983 0,0 -1.92989,0.77407 -1.92989,0.77407 0,0 -0.17332,-2.06412 -0.17332,-2.06412 0,0 -3.77355,1.49108 -3.77355,1.49108 0,0 0,14.80888 0,14.80888 0,0 1.91417,-0.47513 1.91417,-0.47513 0,0 0,1.61819 0,1.61819 0,0 -6.21481,2.7442 -6.21481,2.7442 0,0 0,-1.64611 0,-1.64611 0,0 1.95983,-1.22041 1.95983,-1.22041 0,0 0,-14.90468 0,-14.90468 0,0 -3.91644,1.54753 -3.91644,1.54753 0,0 -0.17111,2.26207 -0.17111,2.26207 0,0 -2.07838,0.83363 -2.07838,0.83363 0,0 0,-4.25505 0,-4.25505 0,0 14.3835,-5.60398 14.3835,-5.60398 0,0 0,0 0,0" />
    </g>
    <g
       id="g4987">
      <path
         d="m 358.01926,505.46387 0,6.28906 -3.28125,0 -0.29297,-3.26172 -6.3086,0 0,22.40234 3.1836,0.54688 0,2.46094 -10.21485,0 0,-2.46094 3.1836,-0.54688 0,-22.40234 -6.32813,0 -0.27343,3.26172 -3.30079,0 0,-6.28906 23.63282,0 z"
         style="font-style:normal;font-variant:normal;font-weight:normal;font-stretch:normal;font-size:medium;line-height:125%;font-family:'Roboto Slab';-inkscape-font-specification:'Roboto Slab';letter-spacing:0px;word-spacing:0px;fill:#000000;fill-opacity:1;stroke:none;stroke-width:1px;stroke-linecap:butt;stroke-linejoin:miter;stroke-opacity:1"
         id="path4918"
         inkscape:connector-curvature="0" />
      <path
         d="m 368.17551,534.31152 q -4.41407,0 -7.03125,-2.92968 -2.59766,-2.94922 -2.59766,-7.63672 l 0,-0.85938 q 0,-4.51172 2.67578,-7.5 2.69531,-3.00781 6.36719,-3.00781 4.25781,0 6.44531,2.57812 2.20703,2.57813 2.20703,6.875 l 0,2.40235 -13.71093,0 -0.0586,0.0977 q 0.0586,3.04688 1.54297,5.01954 1.48438,1.95312 4.16016,1.95312 1.95312,0 3.41797,-0.54687 1.48437,-0.56641 2.55859,-1.54297 l 1.50391,2.5 q -1.13282,1.09375 -3.00782,1.85547 -1.85547,0.74218 -4.47265,0.74218 z m -0.58594,-18.90625 q -1.93359,0 -3.30078,1.64063 -1.36719,1.62109 -1.67969,4.08203 l 0.0391,0.0977 9.7461,0 0,-0.50782 q 0,-2.26562 -1.21094,-3.78906 -1.21094,-1.52344 -3.59375,-1.52344 z"
         style="font-style:normal;font-variant:normal;font-weight:normal;font-stretch:normal;font-size:medium;line-height:125%;font-family:'Roboto Slab';-inkscape-font-specification:'Roboto Slab';letter-spacing:0px;word-spacing:0px;fill:#000000;fill-opacity:1;stroke:none;stroke-width:1px;stroke-linecap:butt;stroke-linejoin:miter;stroke-opacity:1"
         id="path4920"
         inkscape:connector-curvature="0" />
      <path
         d="m 389.50363,531.30371 q 1.91406,0 3.35938,-1.17187 1.46484,-1.19141 1.46484,-2.91016 l 3.45703,0 0.0391,0.11719 q 0.0977,2.73437 -2.4414,4.86328 -2.51953,2.10937 -5.87891,2.10937 -4.60937,0 -7.05078,-3.00781 -2.42187,-3.00781 -2.42187,-7.55859 l 0,-0.82032 q 0,-4.51171 2.4414,-7.51953 2.44141,-3.02734 7.03125,-3.02734 2.53906,0 4.55078,0.83984 2.03125,0.83985 3.35938,2.30469 l 0.17578,4.6875 -3.06641,0 -0.83984,-3.32031 q -0.68359,-0.66406 -1.75781,-1.07422 -1.07422,-0.41016 -2.42188,-0.41016 -3.02734,0 -4.33594,2.1875 -1.28906,2.16797 -1.28906,5.33203 l 0,0.82032 q 0,3.24218 1.28906,5.41015 1.28907,2.14844 4.33594,2.14844 z"
         style="font-style:normal;font-variant:normal;font-weight:normal;font-stretch:normal;font-size:medium;line-height:125%;font-family:'Roboto Slab';-inkscape-font-specification:'Roboto Slab';letter-spacing:0px;word-spacing:0px;fill:#000000;fill-opacity:1;stroke:none;stroke-width:1px;stroke-linecap:butt;stroke-linejoin:miter;stroke-opacity:1"
         id="path4922"
         inkscape:connector-curvature="0" />
      <path
         d="m 401.0466,531.44043 3.18359,-0.54688 0,-24.43359 -3.18359,-0.54687 0,-2.48047 7.03125,0 0,12.14843 q 1.09375,-1.52343 2.67578,-2.36328 1.58203,-0.83984 3.51563,-0.83984 3.39843,0 5.27343,2.03125 1.875,2.03125 1.875,6.25 l 0,10.23437 3.1836,0.54688 0,2.46094 -10.21485,0 0,-2.46094 3.1836,-0.54688 0,-10.27343 q 0,-2.61719 -1.13281,-3.86719 -1.11329,-1.25 -3.33985,-1.25 -1.58203,0 -2.89062,0.76172 -1.28907,0.74219 -2.12891,2.03125 l 0,12.59765 3.18359,0.54688 0,2.46094 -10.21484,0 0,-2.46094 z"
         style="font-style:normal;font-variant:normal;font-weight:normal;font-stretch:normal;font-size:medium;line-height:125%;font-family:'Roboto Slab';-inkscape-font-specification:'Roboto Slab';letter-spacing:0px;word-spacing:0px;fill:#000000;fill-opacity:1;stroke:none;stroke-width:1px;stroke-linecap:butt;stroke-linejoin:miter;stroke-opacity:1"
         id="path4924"
         inkscape:connector-curvature="0" />
      <path
         d="m 426.86691,531.44043 3.1836,-0.54688 0,-15.09765 -3.1836,-0.54688 0,-2.48047 6.6211,0 0.27343,3.14454 q 1.05469,-1.67969 2.63672,-2.59766 1.60157,-0.9375 3.63282,-0.9375 3.41796,0 5.29296,2.01172 1.875,1.99219 1.875,6.17187 l 0,10.33203 3.1836,0.54688 0,2.46094 -10.21485,0 0,-2.46094 3.1836,-0.54688 0,-10.2539 q 0,-2.79297 -1.11328,-3.96485 -1.09375,-1.17187 -3.35938,-1.17187 -1.66015,0 -2.94922,0.80078 -1.26953,0.80078 -2.03125,2.1875 l 0,12.40234 3.1836,0.54688 0,2.46094 -10.21485,0 0,-2.46094 z"
         style="font-style:normal;font-variant:normal;font-weight:normal;font-stretch:normal;font-size:medium;line-height:125%;font-family:'Roboto Slab';-inkscape-font-specification:'Roboto Slab';letter-spacing:0px;word-spacing:0px;fill:#000000;fill-opacity:1;stroke:none;stroke-width:1px;stroke-linecap:butt;stroke-linejoin:miter;stroke-opacity:1"
         id="path4926"
         inkscape:connector-curvature="0" />
      <path
         d="m 453.07785,523.13965 q 0,-4.6875 2.53906,-7.71485 2.53907,-3.04687 6.89453,-3.04687 4.375,0 6.91407,3.02734 2.55859,3.02735 2.55859,7.73438 l 0,0.42969 q 0,4.72656 -2.53906,7.73437 -2.53906,3.00781 -6.89453,3.00781 -4.39453,0 -6.9336,-3.00781 -2.53906,-3.02734 -2.53906,-7.73437 l 0,-0.42969 z m 3.84766,0.42969 q 0,3.35937 1.40625,5.54687 1.42578,2.1875 4.21875,2.1875 2.73437,0 4.16015,-2.1875 1.42578,-2.1875 1.42578,-5.54687 l 0,-0.42969 q 0,-3.32031 -1.42578,-5.52735 -1.42578,-2.20703 -4.19922,-2.20703 -2.77343,0 -4.17968,2.20703 -1.40625,2.20704 -1.40625,5.52735 l 0,0.42969 z"
         style="font-style:normal;font-variant:normal;font-weight:normal;font-stretch:normal;font-size:medium;line-height:125%;font-family:'Roboto Slab';-inkscape-font-specification:'Roboto Slab';letter-spacing:0px;word-spacing:0px;fill:#000000;fill-opacity:1;stroke:none;stroke-width:1px;stroke-linecap:butt;stroke-linejoin:miter;stroke-opacity:1"
         id="path4928"
         inkscape:connector-curvature="0" />
      <path
         d="m 474.91379,531.44043 3.18359,-0.54688 0,-15.09765 -3.18359,-0.54688 0,-2.48047 6.62109,0 0.27344,3.14454 q 1.05469,-1.67969 2.63672,-2.59766 1.60156,-0.9375 3.63281,-0.9375 3.41797,0 5.29297,2.01172 1.875,1.99219 1.875,6.17187 l 0,10.33203 3.18359,0.54688 0,2.46094 -10.21484,0 0,-2.46094 3.18359,-0.54688 0,-10.2539 q 0,-2.79297 -1.11328,-3.96485 -1.09375,-1.17187 -3.35937,-1.17187 -1.66016,0 -2.94922,0.80078 -1.26953,0.80078 -2.03125,2.1875 l 0,12.40234 3.18359,0.54688 0,2.46094 -10.21484,0 0,-2.46094 z"
         style="font-style:normal;font-variant:normal;font-weight:normal;font-stretch:normal;font-size:medium;line-height:125%;font-family:'Roboto Slab';-inkscape-font-specification:'Roboto Slab';letter-spacing:0px;word-spacing:0px;fill:#000000;fill-opacity:1;stroke:none;stroke-width:1px;stroke-linecap:butt;stroke-linejoin:miter;stroke-opacity:1"
         id="path4930"
         inkscape:connector-curvature="0" />
      <path
         d="m 501.12473,523.13965 q 0,-4.6875 2.53906,-7.71485 2.53906,-3.04687 6.89453,-3.04687 4.375,0 6.91406,3.02734 2.5586,3.02735 2.5586,7.73438 l 0,0.42969 q 0,4.72656 -2.53907,7.73437 -2.53906,3.00781 -6.89453,3.00781 -4.39453,0 -6.93359,-3.00781 -2.53906,-3.02734 -2.53906,-7.73437 l 0,-0.42969 z m 3.84765,0.42969 q 0,3.35937 1.40625,5.54687 1.42578,2.1875 4.21875,2.1875 2.73438,0 4.16016,-2.1875 1.42578,-2.1875 1.42578,-5.54687 l 0,-0.42969 q 0,-3.32031 -1.42578,-5.52735 -1.42578,-2.20703 -4.19922,-2.20703 -2.77344,0 -4.17969,2.20703 -1.40625,2.20704 -1.40625,5.52735 l 0,0.42969 z"
         style="font-style:normal;font-variant:normal;font-weight:normal;font-stretch:normal;font-size:medium;line-height:125%;font-family:'Roboto Slab';-inkscape-font-specification:'Roboto Slab';letter-spacing:0px;word-spacing:0px;fill:#000000;fill-opacity:1;stroke:none;stroke-width:1px;stroke-linecap:butt;stroke-linejoin:miter;stroke-opacity:1"
         id="path4932"
         inkscape:connector-curvature="0" />
      <path
         d="m 522.76535,531.44043 3.18359,-0.54688 0,-15.09765 -3.18359,-0.54688 0,-2.48047 6.64063,0 0.2539,2.75391 q 1.01563,-1.50391 2.61719,-2.32422 1.60156,-0.82031 3.71094,-0.82031 2.10937,0 3.61328,0.97656 1.52344,0.97656 2.28515,2.92969 0.9961,-1.79688 2.63672,-2.85156 1.64063,-1.05469 3.82813,-1.05469 3.24219,0 5.11719,2.22656 1.875,2.20703 1.875,6.66016 l 0,9.6289 3.18359,0.54688 0,2.46094 -10.23438,0 0,-2.46094 3.1836,-0.54688 0,-9.66796 q 0,-3.125 -1.07422,-4.41407 -1.07422,-1.30859 -3.18359,-1.30859 -2.01172,0 -3.24219,1.42578 -1.21094,1.40625 -1.40625,3.55469 l 0,10.41015 3.18359,0.54688 0,2.46094 -10.21484,0 0,-2.46094 3.18359,-0.54688 0,-9.66796 q 0,-2.96875 -1.11328,-4.33594 -1.09375,-1.38672 -3.18359,-1.38672 -1.75782,0 -2.89063,0.72266 -1.13281,0.72265 -1.73828,2.03125 l 0,12.63671 3.18359,0.54688 0,2.46094 -10.21484,0 0,-2.46094 z"
         style="font-style:normal;font-variant:normal;font-weight:normal;font-stretch:normal;font-size:medium;line-height:125%;font-family:'Roboto Slab';-inkscape-font-specification:'Roboto Slab';letter-spacing:0px;word-spacing:0px;fill:#000000;fill-opacity:1;stroke:none;stroke-width:1px;stroke-linecap:butt;stroke-linejoin:miter;stroke-opacity:1"
         id="path4934"
         inkscape:connector-curvature="0" />
      <path
         d="m 561.33957,531.44043 3.18359,-0.54688 0,-15.09765 -3.18359,-0.54688 0,-2.48047 7.03125,0 0,18.125 3.18359,0.54688 0,2.46094 -10.21484,0 0,-2.46094 z m 7.03125,-24.08203 -3.84766,0 0,-3.92578 3.84766,0 0,3.92578 z"
         style="font-style:normal;font-variant:normal;font-weight:normal;font-stretch:normal;font-size:medium;line-height:125%;font-family:'Roboto Slab';-inkscape-font-specification:'Roboto Slab';letter-spacing:0px;word-spacing:0px;fill:#000000;fill-opacity:1;stroke:none;stroke-width:1px;stroke-linecap:butt;stroke-linejoin:miter;stroke-opacity:1"
         id="path4936"
         inkscape:connector-curvature="0" />
      <path
         d="m 583.95676,531.30371 q 1.91406,0 3.35937,-1.17187 1.46485,-1.19141 1.46485,-2.91016 l 3.45703,0 0.0391,0.11719 q 0.0977,2.73437 -2.44141,4.86328 -2.51953,2.10937 -5.8789,2.10937 -4.60938,0 -7.05078,-3.00781 -2.42188,-3.00781 -2.42188,-7.55859 l 0,-0.82032 q 0,-4.51171 2.44141,-7.51953 2.4414,-3.02734 7.03125,-3.02734 2.53906,0 4.55078,0.83984 2.03125,0.83985 3.35937,2.30469 l 0.17578,4.6875 -3.0664,0 -0.83985,-3.32031 q -0.68359,-0.66406 -1.75781,-1.07422 -1.07422,-0.41016 -2.42187,-0.41016 -3.02735,0 -4.33594,2.1875 -1.28906,2.16797 -1.28906,5.33203 l 0,0.82032 q 0,3.24218 1.28906,5.41015 1.28906,2.14844 4.33594,2.14844 z"
         style="font-style:normal;font-variant:normal;font-weight:normal;font-stretch:normal;font-size:medium;line-height:125%;font-family:'Roboto Slab';-inkscape-font-specification:'Roboto Slab';letter-spacing:0px;word-spacing:0px;fill:#000000;fill-opacity:1;stroke:none;stroke-width:1px;stroke-linecap:butt;stroke-linejoin:miter;stroke-opacity:1"
         id="path4938"
         inkscape:connector-curvature="0" />
      <path
         d="m 596.0466,523.13965 q 0,-4.6875 2.53906,-7.71485 2.53907,-3.04687 6.89453,-3.04687 4.375,0 6.91407,3.02734 2.55859,3.02735 2.55859,7.73438 l 0,0.42969 q 0,4.72656 -2.53906,7.73437 -2.53906,3.00781 -6.89453,3.00781 -4.39453,0 -6.9336,-3.00781 -2.53906,-3.02734 -2.53906,-7.73437 l 0,-0.42969 z m 3.84766,0.42969 q 0,3.35937 1.40625,5.54687 1.42578,2.1875 4.21875,2.1875 2.73437,0 4.16015,-2.1875 1.42578,-2.1875 1.42578,-5.54687 l 0,-0.42969 q 0,-3.32031 -1.42578,-5.52735 -1.42578,-2.20703 -4.19922,-2.20703 -2.77343,0 -4.17968,2.20703 -1.40625,2.20704 -1.40625,5.52735 l 0,0.42969 z"
         style="font-style:normal;font-variant:normal;font-weight:normal;font-stretch:normal;font-size:medium;line-height:125%;font-family:'Roboto Slab';-inkscape-font-specification:'Roboto Slab';letter-spacing:0px;word-spacing:0px;fill:#000000;fill-opacity:1;stroke:none;stroke-width:1px;stroke-linecap:butt;stroke-linejoin:miter;stroke-opacity:1"
         id="path4940"
         inkscape:connector-curvature="0" />
      <path
         d="m 617.88254,531.44043 3.18359,-0.54688 0,-15.09765 -3.18359,-0.54688 0,-2.48047 6.62109,0 0.27344,3.14454 q 1.05469,-1.67969 2.63672,-2.59766 1.60156,-0.9375 3.63281,-0.9375 3.41797,0 5.29297,2.01172 1.875,1.99219 1.875,6.17187 l 0,10.33203 3.18359,0.54688 0,2.46094 -10.21484,0 0,-2.46094 3.18359,-0.54688 0,-10.2539 q 0,-2.79297 -1.11328,-3.96485 -1.09375,-1.17187 -3.35937,-1.17187 -1.66016,0 -2.94922,0.80078 -1.26953,0.80078 -2.03125,2.1875 l 0,12.40234 3.18359,0.54688 0,2.46094 -10.21484,0 0,-2.46094 z"
         style="font-style:normal;font-variant:normal;font-weight:normal;font-stretch:normal;font-size:medium;line-height:125%;font-family:'Roboto Slab';-inkscape-font-specification:'Roboto Slab';letter-spacing:0px;word-spacing:0px;fill:#000000;fill-opacity:1;stroke:none;stroke-width:1px;stroke-linecap:butt;stroke-linejoin:miter;stroke-opacity:1"
         id="path4942"
         inkscape:connector-curvature="0" />
      <path
         d="m 408.12395,538.84346 0,1.64697 -0.85929,0 -0.0767,-0.85418 -1.65209,0 0,5.86672 0.83372,0.14321 0,0.64447 -2.67506,0 0,-0.64447 0.83372,-0.14321 0,-5.86672 -1.65721,0 -0.0716,0.85418 -0.8644,0 0,-1.64697 6.18894,0 z"
         style="font-style:normal;font-variant:normal;font-weight:normal;font-stretch:normal;font-size:medium;line-height:125%;font-family:'Roboto Slab';-inkscape-font-specification:'Roboto Slab';letter-spacing:0px;word-spacing:0px;fill:#000000;fill-opacity:1;stroke:none;stroke-width:1px;stroke-linecap:butt;stroke-linejoin:miter;stroke-opacity:1"
         id="path4857"
         inkscape:connector-curvature="0" />
      <path
         d="m 408.63032,545.64618 0.83372,-0.14321 0,-6.39866 -0.83372,-0.14321 0,-0.64959 1.84134,0 0,3.18143 q 0.28643,-0.39896 0.70073,-0.6189 0.4143,-0.21993 0.92067,-0.21993 0.88998,0 1.38101,0.53194 0.49102,0.53194 0.49102,1.63674 l 0,2.68018 0.83372,0.14321 0,0.64447 -2.67506,0 0,-0.64447 0.83372,-0.14321 0,-2.69041 q 0,-0.68538 -0.29666,-1.01273 -0.29155,-0.32735 -0.87464,-0.32735 -0.4143,0 -0.75699,0.19948 -0.33758,0.19436 -0.55752,0.53194 l 0,3.29907 0.83372,0.14321 0,0.64447 -2.67506,0 0,-0.64447 z"
         style="font-style:normal;font-variant:normal;font-weight:normal;font-stretch:normal;font-size:medium;line-height:125%;font-family:'Roboto Slab';-inkscape-font-specification:'Roboto Slab';letter-spacing:0px;word-spacing:0px;fill:#000000;fill-opacity:1;stroke:none;stroke-width:1px;stroke-linecap:butt;stroke-linejoin:miter;stroke-opacity:1"
         id="path4859"
         inkscape:connector-curvature="0" />
      <path
         d="m 418.02627,546.39806 q -1.15596,0 -1.84134,-0.76722 -0.68028,-0.77234 -0.68028,-1.9999 l 0,-0.22506 q 0,-1.18152 0.70074,-1.96409 0.70584,-0.78768 1.66743,-0.78768 1.11503,0 1.68789,0.67515 0.57798,0.67516 0.57798,1.80042 l 0,0.62913 -3.59061,0 -0.0154,0.0256 q 0.0154,0.79792 0.40408,1.31451 0.38872,0.51149 1.08946,0.51149 0.51148,0 0.89509,-0.14322 0.38873,-0.14833 0.67004,-0.40407 l 0.39385,0.6547 q -0.29666,0.28643 -0.78769,0.48591 -0.48591,0.19436 -1.17129,0.19436 z m -0.15345,-4.95116 q -0.50637,0 -0.86441,0.42965 -0.35803,0.42453 -0.43987,1.069 l 0.0102,0.0256 2.5523,0 0,-0.13298 q 0,-0.59332 -0.31712,-0.99228 -0.31712,-0.39896 -0.94113,-0.39896 z"
         style="font-style:normal;font-variant:normal;font-weight:normal;font-stretch:normal;font-size:medium;line-height:125%;font-family:'Roboto Slab';-inkscape-font-specification:'Roboto Slab';letter-spacing:0px;word-spacing:0px;fill:#000000;fill-opacity:1;stroke:none;stroke-width:1px;stroke-linecap:butt;stroke-linejoin:miter;stroke-opacity:1"
         id="path4861"
         inkscape:connector-curvature="0" />
      <path
         d="m 426.9005,538.84857 q 1.21733,0 1.86691,0.54217 0.64958,0.53706 0.64958,1.52934 0,0.54217 -0.30177,0.96159 -0.30178,0.41941 -0.86441,0.65981 0.60867,0.19948 0.87464,0.64958 0.27108,0.45011 0.27108,1.10992 l 0,0.59844 q 0,0.34269 0.087,0.50636 0.087,0.16368 0.28643,0.19437 l 0.24551,0.0307 0,0.65981 -0.54217,0 q -0.58821,0 -0.83884,-0.40919 -0.24551,-0.40918 -0.24551,-0.99227 l 0,-0.57798 q 0,-0.60867 -0.35292,-0.97693 -0.35292,-0.36827 -0.94624,-0.36827 l -1.61629,0 0,2.53696 0.83372,0.14321 0,0.64447 -2.67506,0 0,-0.64447 0.83372,-0.14321 0,-5.86672 -0.83372,-0.14321 0,-0.64447 0.83372,0 2.43466,0 z m -1.42704,3.32464 1.32474,0 q 0.84395,0 1.22756,-0.32223 0.38361,-0.32224 0.38361,-0.94113 0,-0.58821 -0.36827,-0.9309 -0.36826,-0.3427 -1.1406,-0.3427 l -1.42704,0 0,2.53696 z"
         style="font-style:normal;font-variant:normal;font-weight:normal;font-stretch:normal;font-size:medium;line-height:125%;font-family:'Roboto Slab';-inkscape-font-specification:'Roboto Slab';letter-spacing:0px;word-spacing:0px;fill:#000000;fill-opacity:1;stroke:none;stroke-width:1px;stroke-linecap:butt;stroke-linejoin:miter;stroke-opacity:1"
         id="path4863"
         inkscape:connector-curvature="0" />
      <path
         d="m 433.3503,546.39806 q -1.15595,0 -1.84134,-0.76722 -0.68027,-0.77234 -0.68027,-1.9999 l 0,-0.22506 q 0,-1.18152 0.70073,-1.96409 0.70585,-0.78768 1.66743,-0.78768 1.11504,0 1.6879,0.67515 0.57797,0.67516 0.57797,1.80042 l 0,0.62913 -3.59061,0 -0.0153,0.0256 q 0.0153,0.79792 0.40407,1.31451 0.38873,0.51149 1.08946,0.51149 0.51148,0 0.89509,-0.14322 0.38873,-0.14833 0.67005,-0.40407 l 0.39384,0.6547 q -0.29666,0.28643 -0.78768,0.48591 -0.48591,0.19436 -1.1713,0.19436 z m -0.15345,-4.95116 q -0.50636,0 -0.8644,0.42965 -0.35804,0.42453 -0.43988,1.069 l 0.0102,0.0256 2.5523,0 0,-0.13298 q 0,-0.59332 -0.31712,-0.99228 -0.31712,-0.39896 -0.94113,-0.39896 z"
         style="font-style:normal;font-variant:normal;font-weight:normal;font-stretch:normal;font-size:medium;line-height:125%;font-family:'Roboto Slab';-inkscape-font-specification:'Roboto Slab';letter-spacing:0px;word-spacing:0px;fill:#000000;fill-opacity:1;stroke:none;stroke-width:1px;stroke-linecap:butt;stroke-linejoin:miter;stroke-opacity:1"
         id="path4865"
         inkscape:connector-curvature="0" />
      <path
         d="m 438.28611,541.40599 -0.66493,0.10229 1.14061,3.15074 0.0921,0.39896 0.0307,0 0.0972,-0.39896 1.1048,-3.15074 -0.67004,-0.10229 0,-0.64959 2.138,0 0,0.64959 -0.45522,0.0767 -1.85669,4.80794 -0.76211,0 -1.87714,-4.80794 -0.45522,-0.0767 0,-0.64959 2.138,0 0,0.64959 z"
         style="font-style:normal;font-variant:normal;font-weight:normal;font-stretch:normal;font-size:medium;line-height:125%;font-family:'Roboto Slab';-inkscape-font-specification:'Roboto Slab';letter-spacing:0px;word-spacing:0px;fill:#000000;fill-opacity:1;stroke:none;stroke-width:1px;stroke-linecap:butt;stroke-linejoin:miter;stroke-opacity:1"
         id="path4867"
         inkscape:connector-curvature="0" />
      <path
         d="m 444.70522,546.39806 q -1.15595,0 -1.84133,-0.76722 -0.68028,-0.77234 -0.68028,-1.9999 l 0,-0.22506 q 0,-1.18152 0.70073,-1.96409 0.70585,-0.78768 1.66744,-0.78768 1.11503,0 1.68789,0.67515 0.57798,0.67516 0.57798,1.80042 l 0,0.62913 -3.59061,0 -0.0154,0.0256 q 0.0154,0.79792 0.40408,1.31451 0.38872,0.51149 1.08945,0.51149 0.51149,0 0.8951,-0.14322 0.38873,-0.14833 0.67004,-0.40407 l 0.39384,0.6547 q -0.29666,0.28643 -0.78768,0.48591 -0.48591,0.19436 -1.1713,0.19436 z m -0.15344,-4.95116 q -0.50637,0 -0.86441,0.42965 -0.35804,0.42453 -0.43987,1.069 l 0.0102,0.0256 2.5523,0 0,-0.13298 q 0,-0.59332 -0.31712,-0.99228 -0.31712,-0.39896 -0.94113,-0.39896 z"
         style="font-style:normal;font-variant:normal;font-weight:normal;font-stretch:normal;font-size:medium;line-height:125%;font-family:'Roboto Slab';-inkscape-font-specification:'Roboto Slab';letter-spacing:0px;word-spacing:0px;fill:#000000;fill-opacity:1;stroke:none;stroke-width:1px;stroke-linecap:butt;stroke-linejoin:miter;stroke-opacity:1"
         id="path4869"
         inkscape:connector-curvature="0" />
      <path
         d="m 447.80481,541.40599 0,-0.64959 1.73393,0 0.0972,0.80303 q 0.23528,-0.42453 0.57798,-0.66493 0.3478,-0.24039 0.79279,-0.24039 0.11765,0 0.2404,0.0205 0.12787,0.0154 0.19437,0.0358 l -0.13299,0.93601 -0.57286,-0.0307 q -0.39896,0 -0.67004,0.18925 -0.27109,0.18414 -0.41942,0.52172 l 0,3.17631 0.83372,0.14321 0,0.64447 -2.67506,0 0,-0.64447 0.83372,-0.14321 0,-3.95377 -0.83372,-0.14321 z"
         style="font-style:normal;font-variant:normal;font-weight:normal;font-stretch:normal;font-size:medium;line-height:125%;font-family:'Roboto Slab';-inkscape-font-specification:'Roboto Slab';letter-spacing:0px;word-spacing:0px;fill:#000000;fill-opacity:1;stroke:none;stroke-width:1px;stroke-linecap:butt;stroke-linejoin:miter;stroke-opacity:1"
         id="path4871"
         inkscape:connector-curvature="0" />
      <path
         d="m 456.37727,542.49544 -0.757,0 -0.16367,-0.66492 q -0.18414,-0.17391 -0.46545,-0.2762 -0.2762,-0.10742 -0.62913,-0.10742 -0.53705,0 -0.79791,0.23529 -0.26086,0.23528 -0.26086,0.56774 0,0.32735 0.23017,0.5166 0.23017,0.18925 0.93601,0.33758 1.04854,0.22505 1.56003,0.61378 0.51148,0.38361 0.51148,1.0332 0,0.73653 -0.59843,1.19175 -0.59333,0.45522 -1.55491,0.45522 -0.62913,0 -1.13038,-0.14321 -0.50125,-0.14833 -0.8951,-0.42454 l -0.005,-1.26336 0.75699,0 0.18925,0.74165 q 0.17391,0.15856 0.47057,0.23017 0.30177,0.0716 0.61378,0.0716 0.53705,0 0.83883,-0.21483 0.30689,-0.21993 0.30689,-0.57286 0,-0.33246 -0.25574,-0.54728 -0.25063,-0.21483 -0.95648,-0.37339 -1.00762,-0.21993 -1.5191,-0.59843 -0.51148,-0.3785 -0.51148,-1.02297 0,-0.67516 0.57286,-1.15084 0.57797,-0.47567 1.49864,-0.47567 0.62913,0 1.13038,0.16367 0.50125,0.16367 0.83372,0.45522 l 0.0512,1.22244 z"
         style="font-style:normal;font-variant:normal;font-weight:normal;font-stretch:normal;font-size:medium;line-height:125%;font-family:'Roboto Slab';-inkscape-font-specification:'Roboto Slab';letter-spacing:0px;word-spacing:0px;fill:#000000;fill-opacity:1;stroke:none;stroke-width:1px;stroke-linecap:butt;stroke-linejoin:miter;stroke-opacity:1"
         id="path4873"
         inkscape:connector-curvature="0" />
      <path
         d="m 460.0088,546.39806 q -1.15595,0 -1.84134,-0.76722 -0.68027,-0.77234 -0.68027,-1.9999 l 0,-0.22506 q 0,-1.18152 0.70073,-1.96409 0.70584,-0.78768 1.66743,-0.78768 1.11504,0 1.6879,0.67515 0.57797,0.67516 0.57797,1.80042 l 0,0.62913 -3.59061,0 -0.0153,0.0256 q 0.0153,0.79792 0.40407,1.31451 0.38873,0.51149 1.08946,0.51149 0.51148,0 0.89509,-0.14322 0.38873,-0.14833 0.67005,-0.40407 l 0.39384,0.6547 q -0.29666,0.28643 -0.78769,0.48591 -0.4859,0.19436 -1.17129,0.19436 z m -0.15345,-4.95116 q -0.50637,0 -0.8644,0.42965 -0.35804,0.42453 -0.43988,1.069 l 0.0102,0.0256 2.5523,0 0,-0.13298 q 0,-0.59332 -0.31712,-0.99228 -0.31712,-0.39896 -0.94113,-0.39896 z"
         style="font-style:normal;font-variant:normal;font-weight:normal;font-stretch:normal;font-size:medium;line-height:125%;font-family:'Roboto Slab';-inkscape-font-specification:'Roboto Slab';letter-spacing:0px;word-spacing:0px;fill:#000000;fill-opacity:1;stroke:none;stroke-width:1px;stroke-linecap:butt;stroke-linejoin:miter;stroke-opacity:1"
         id="path4875"
         inkscape:connector-curvature="0" />
      <path
         d="m 465.942,543.53887 -2.50115,0 0,-0.78768 2.50115,0 0,0.78768 z"
         style="font-style:normal;font-variant:normal;font-weight:normal;font-stretch:normal;font-size:medium;line-height:125%;font-family:'Roboto Slab';-inkscape-font-specification:'Roboto Slab';letter-spacing:0px;word-spacing:0px;fill:#000000;fill-opacity:1;stroke:none;stroke-width:1px;stroke-linecap:butt;stroke-linejoin:miter;stroke-opacity:1"
         id="path4877"
         inkscape:connector-curvature="0" />
      <path
         d="m 467.08772,546.29065 0,-0.64447 0.83372,-0.14321 0,-5.86672 -0.83372,-0.14321 0,-0.64958 5.71839,0 0,1.79019 -0.86441,0 -0.0818,-0.9974 -2.9308,0 0,2.40909 2.84896,0 0,0.7928 -2.84896,0 0,2.66483 2.99218,0 0.0818,-0.9974 0.85929,0 0,1.78508 -5.77465,0 z"
         style="font-style:normal;font-variant:normal;font-weight:normal;font-stretch:normal;font-size:medium;line-height:125%;font-family:'Roboto Slab';-inkscape-font-specification:'Roboto Slab';letter-spacing:0px;word-spacing:0px;fill:#000000;fill-opacity:1;stroke:none;stroke-width:1px;stroke-linecap:butt;stroke-linejoin:miter;stroke-opacity:1"
         id="path4879"
         inkscape:connector-curvature="0" />
      <path
         d="m 473.72166,545.64618 0.83372,-0.14321 0,-3.95377 -0.83372,-0.14321 0,-0.64959 1.73393,0 0.0716,0.82349 q 0.2762,-0.43988 0.6905,-0.68027 0.41942,-0.24551 0.95136,-0.24551 0.89509,0 1.38612,0.52682 0.49102,0.52172 0.49102,1.61629 l 0,2.70575 0.83372,0.14321 0,0.64447 -2.67506,0 0,-0.64447 0.83372,-0.14321 0,-2.68529 q 0,-0.73142 -0.29155,-1.03831 -0.28643,-0.30689 -0.87975,-0.30689 -0.43476,0 -0.77234,0.20971 -0.33246,0.2097 -0.53194,0.57286 l 0,3.24792 0.83372,0.14321 0,0.64447 -2.67506,0 0,-0.64447 z"
         style="font-style:normal;font-variant:normal;font-weight:normal;font-stretch:normal;font-size:medium;line-height:125%;font-family:'Roboto Slab';-inkscape-font-specification:'Roboto Slab';letter-spacing:0px;word-spacing:0px;fill:#000000;fill-opacity:1;stroke:none;stroke-width:1px;stroke-linecap:butt;stroke-linejoin:miter;stroke-opacity:1"
         id="path4881"
         inkscape:connector-curvature="0" />
      <path
         d="m 480.58576,543.62582 q 0,-1.33497 0.58309,-2.15334 0.58309,-0.81837 1.61117,-0.81837 0.52172,0 0.91556,0.20459 0.39384,0.20459 0.65981,0.59332 l 0.0921,-0.69562 0.84906,0 0,5.46264 q 0,1.07412 -0.59843,1.6879 -0.59844,0.61889 -1.70324,0.61889 -0.39896,0 -0.86441,-0.11253 -0.46545,-0.10741 -0.81837,-0.29666 l 0.26085,-0.78257 q 0.28132,0.14834 0.66493,0.24552 0.38361,0.0972 0.74677,0.0972 0.67516,0 0.98716,-0.3785 0.31712,-0.3785 0.31712,-1.07923 l 0,-0.52683 q -0.27109,0.34781 -0.64958,0.52683 -0.3785,0.17902 -0.86953,0.17902 -1.01785,0 -1.60094,-0.73653 -0.58309,-0.73654 -0.58309,-1.9283 l 0,-0.10741 z m 1.00762,0.10741 q 0,0.83372 0.35293,1.34009 0.35292,0.50637 1.07411,0.50637 0.45522,0 0.76211,-0.2046 0.30689,-0.2097 0.50637,-0.5882 l 0,-2.54719 q -0.19436,-0.35292 -0.50637,-0.55751 -0.312,-0.20971 -0.75188,-0.20971 -0.72119,0 -1.07923,0.60355 -0.35804,0.60355 -0.35804,1.54979 l 0,0.10741 z"
         style="font-style:normal;font-variant:normal;font-weight:normal;font-stretch:normal;font-size:medium;line-height:125%;font-family:'Roboto Slab';-inkscape-font-specification:'Roboto Slab';letter-spacing:0px;word-spacing:0px;fill:#000000;fill-opacity:1;stroke:none;stroke-width:1px;stroke-linecap:butt;stroke-linejoin:miter;stroke-opacity:1"
         id="path4883"
         inkscape:connector-curvature="0" />
      <path
         d="m 486.51385,545.64618 0.83372,-0.14321 0,-3.95377 -0.83372,-0.14321 0,-0.64959 1.84134,0 0,4.74657 0.83372,0.14321 0,0.64447 -2.67506,0 0,-0.64447 z m 1.84134,-6.30659 -1.00762,0 0,-1.02808 1.00762,0 0,1.02808 z"
         style="font-style:normal;font-variant:normal;font-weight:normal;font-stretch:normal;font-size:medium;line-height:125%;font-family:'Roboto Slab';-inkscape-font-specification:'Roboto Slab';letter-spacing:0px;word-spacing:0px;fill:#000000;fill-opacity:1;stroke:none;stroke-width:1px;stroke-linecap:butt;stroke-linejoin:miter;stroke-opacity:1"
         id="path4885"
         inkscape:connector-curvature="0" />
      <path
         d="m 489.80269,545.64618 0.83371,-0.14321 0,-3.95377 -0.83371,-0.14321 0,-0.64959 1.73392,0 0.0716,0.82349 q 0.2762,-0.43988 0.6905,-0.68027 0.41942,-0.24551 0.95136,-0.24551 0.8951,0 1.38612,0.52682 0.49103,0.52172 0.49103,1.61629 l 0,2.70575 0.83371,0.14321 0,0.64447 -2.67505,0 0,-0.64447 0.83371,-0.14321 0,-2.68529 q 0,-0.73142 -0.29154,-1.03831 -0.28643,-0.30689 -0.87975,-0.30689 -0.43476,0 -0.77234,0.20971 -0.33247,0.2097 -0.53194,0.57286 l 0,3.24792 0.83371,0.14321 0,0.64447 -2.67505,0 0,-0.64447 z"
         style="font-style:normal;font-variant:normal;font-weight:normal;font-stretch:normal;font-size:medium;line-height:125%;font-family:'Roboto Slab';-inkscape-font-specification:'Roboto Slab';letter-spacing:0px;word-spacing:0px;fill:#000000;fill-opacity:1;stroke:none;stroke-width:1px;stroke-linecap:butt;stroke-linejoin:miter;stroke-opacity:1"
         id="path4887"
         inkscape:connector-curvature="0" />
      <path
         d="m 499.18841,546.39806 q -1.15596,0 -1.84134,-0.76722 -0.68028,-0.77234 -0.68028,-1.9999 l 0,-0.22506 q 0,-1.18152 0.70074,-1.96409 0.70584,-0.78768 1.66743,-0.78768 1.11503,0 1.68789,0.67515 0.57798,0.67516 0.57798,1.80042 l 0,0.62913 -3.59061,0 -0.0154,0.0256 q 0.0154,0.79792 0.40408,1.31451 0.38872,0.51149 1.08946,0.51149 0.51148,0 0.89509,-0.14322 0.38873,-0.14833 0.67004,-0.40407 l 0.39385,0.6547 q -0.29666,0.28643 -0.78769,0.48591 -0.48591,0.19436 -1.17129,0.19436 z m -0.15345,-4.95116 q -0.50637,0 -0.86441,0.42965 -0.35803,0.42453 -0.43987,1.069 l 0.0102,0.0256 2.5523,0 0,-0.13298 q 0,-0.59332 -0.31712,-0.99228 -0.31712,-0.39896 -0.94113,-0.39896 z"
         style="font-style:normal;font-variant:normal;font-weight:normal;font-stretch:normal;font-size:medium;line-height:125%;font-family:'Roboto Slab';-inkscape-font-specification:'Roboto Slab';letter-spacing:0px;word-spacing:0px;fill:#000000;fill-opacity:1;stroke:none;stroke-width:1px;stroke-linecap:butt;stroke-linejoin:miter;stroke-opacity:1"
         id="path4889"
         inkscape:connector-curvature="0" />
      <path
         d="m 504.81472,546.39806 q -1.15595,0 -1.84134,-0.76722 -0.68027,-0.77234 -0.68027,-1.9999 l 0,-0.22506 q 0,-1.18152 0.70073,-1.96409 0.70584,-0.78768 1.66743,-0.78768 1.11504,0 1.6879,0.67515 0.57797,0.67516 0.57797,1.80042 l 0,0.62913 -3.59061,0 -0.0153,0.0256 q 0.0153,0.79792 0.40407,1.31451 0.38873,0.51149 1.08946,0.51149 0.51148,0 0.89509,-0.14322 0.38873,-0.14833 0.67005,-0.40407 l 0.39384,0.6547 q -0.29666,0.28643 -0.78769,0.48591 -0.4859,0.19436 -1.17129,0.19436 z m -0.15345,-4.95116 q -0.50637,0 -0.8644,0.42965 -0.35804,0.42453 -0.43988,1.069 l 0.0102,0.0256 2.5523,0 0,-0.13298 q 0,-0.59332 -0.31712,-0.99228 -0.31712,-0.39896 -0.94113,-0.39896 z"
         style="font-style:normal;font-variant:normal;font-weight:normal;font-stretch:normal;font-size:medium;line-height:125%;font-family:'Roboto Slab';-inkscape-font-specification:'Roboto Slab';letter-spacing:0px;word-spacing:0px;fill:#000000;fill-opacity:1;stroke:none;stroke-width:1px;stroke-linecap:butt;stroke-linejoin:miter;stroke-opacity:1"
         id="path4891"
         inkscape:connector-curvature="0" />
      <path
         d="m 507.9143,541.40599 0,-0.64959 1.73393,0 0.0972,0.80303 q 0.23529,-0.42453 0.57798,-0.66493 0.34781,-0.24039 0.7928,-0.24039 0.11764,0 0.24039,0.0205 0.12788,0.0154 0.19437,0.0358 l -0.13299,0.93601 -0.57286,-0.0307 q -0.39896,0 -0.67004,0.18925 -0.27109,0.18414 -0.41942,0.52172 l 0,3.17631 0.83372,0.14321 0,0.64447 -2.67506,0 0,-0.64447 0.83372,-0.14321 0,-3.95377 -0.83372,-0.14321 z"
         style="font-style:normal;font-variant:normal;font-weight:normal;font-stretch:normal;font-size:medium;line-height:125%;font-family:'Roboto Slab';-inkscape-font-specification:'Roboto Slab';letter-spacing:0px;word-spacing:0px;fill:#000000;fill-opacity:1;stroke:none;stroke-width:1px;stroke-linecap:butt;stroke-linejoin:miter;stroke-opacity:1"
         id="path4893"
         inkscape:connector-curvature="0" />
      <path
         d="m 512.25168,545.64618 0.83372,-0.14321 0,-3.95377 -0.83372,-0.14321 0,-0.64959 1.84134,0 0,4.74657 0.83372,0.14321 0,0.64447 -2.67506,0 0,-0.64447 z m 1.84134,-6.30659 -1.00762,0 0,-1.02808 1.00762,0 0,1.02808 z"
         style="font-style:normal;font-variant:normal;font-weight:normal;font-stretch:normal;font-size:medium;line-height:125%;font-family:'Roboto Slab';-inkscape-font-specification:'Roboto Slab';letter-spacing:0px;word-spacing:0px;fill:#000000;fill-opacity:1;stroke:none;stroke-width:1px;stroke-linecap:butt;stroke-linejoin:miter;stroke-opacity:1"
         id="path4895"
         inkscape:connector-curvature="0" />
      <path
         d="m 515.54052,545.64618 0.83371,-0.14321 0,-3.95377 -0.83371,-0.14321 0,-0.64959 1.73392,0 0.0716,0.82349 q 0.2762,-0.43988 0.6905,-0.68027 0.41942,-0.24551 0.95136,-0.24551 0.8951,0 1.38612,0.52682 0.49103,0.52172 0.49103,1.61629 l 0,2.70575 0.83371,0.14321 0,0.64447 -2.67505,0 0,-0.64447 0.83371,-0.14321 0,-2.68529 q 0,-0.73142 -0.29154,-1.03831 -0.28643,-0.30689 -0.87975,-0.30689 -0.43476,0 -0.77234,0.20971 -0.33247,0.2097 -0.53194,0.57286 l 0,3.24792 0.83371,0.14321 0,0.64447 -2.67505,0 0,-0.64447 z"
         style="font-style:normal;font-variant:normal;font-weight:normal;font-stretch:normal;font-size:medium;line-height:125%;font-family:'Roboto Slab';-inkscape-font-specification:'Roboto Slab';letter-spacing:0px;word-spacing:0px;fill:#000000;fill-opacity:1;stroke:none;stroke-width:1px;stroke-linecap:butt;stroke-linejoin:miter;stroke-opacity:1"
         id="path4897"
         inkscape:connector-curvature="0" />
      <path
         d="m 522.40462,543.62582 q 0,-1.33497 0.58309,-2.15334 0.58309,-0.81837 1.61117,-0.81837 0.52171,0 0.91555,0.20459 0.39385,0.20459 0.65982,0.59332 l 0.0921,-0.69562 0.84907,0 0,5.46264 q 0,1.07412 -0.59844,1.6879 -0.59843,0.61889 -1.70324,0.61889 -0.39895,0 -0.8644,-0.11253 -0.46545,-0.10741 -0.81838,-0.29666 l 0.26086,-0.78257 q 0.28132,0.14834 0.66493,0.24552 0.38361,0.0972 0.74676,0.0972 0.67516,0 0.98717,-0.3785 0.31711,-0.3785 0.31711,-1.07923 l 0,-0.52683 q -0.27108,0.34781 -0.64958,0.52683 -0.3785,0.17902 -0.86952,0.17902 -1.01785,0 -1.60094,-0.73653 -0.58309,-0.73654 -0.58309,-1.9283 l 0,-0.10741 z m 1.00762,0.10741 q 0,0.83372 0.35292,1.34009 0.35293,0.50637 1.07412,0.50637 0.45522,0 0.76211,-0.2046 0.30689,-0.2097 0.50636,-0.5882 l 0,-2.54719 q -0.19436,-0.35292 -0.50636,-0.55751 -0.31201,-0.20971 -0.75188,-0.20971 -0.72119,0 -1.07923,0.60355 -0.35804,0.60355 -0.35804,1.54979 l 0,0.10741 z"
         style="font-style:normal;font-variant:normal;font-weight:normal;font-stretch:normal;font-size:medium;line-height:125%;font-family:'Roboto Slab';-inkscape-font-specification:'Roboto Slab';letter-spacing:0px;word-spacing:0px;fill:#000000;fill-opacity:1;stroke:none;stroke-width:1px;stroke-linecap:butt;stroke-linejoin:miter;stroke-opacity:1"
         id="path4899"
         inkscape:connector-curvature="0" />
      <path
         d="m 536.76707,545.4467 q -0.32735,0.3427 -0.9667,0.64959 -0.63935,0.30177 -1.66232,0.30177 -1.49353,0 -2.43978,-1.04854 -0.94112,-1.04854 -0.94112,-2.72109 l 0,-0.12276 q 0,-1.68277 0.9309,-2.7262 0.93601,-1.04343 2.4858,-1.04343 0.82861,0 1.45261,0.26086 0.62913,0.25574 1.05877,0.68027 l 0,1.35032 -0.70584,0 -0.24551,-1.02808 q -0.25063,-0.2046 -0.60867,-0.33758 -0.35292,-0.13299 -0.84906,-0.13299 -1.2071,0 -1.8618,0.82861 -0.64958,0.82348 -0.64958,2.13799 l 0,0.13299 q 0,1.33497 0.62912,2.15846 0.63424,0.82349 1.74416,0.82349 0.60866,0 0.99739,-0.12787 0.38873,-0.12787 0.62401,-0.28132 l 0,-1.63163 -1.22244,-0.0512 0,-0.74165 2.23006,0 0,2.66994 z"
         style="font-style:normal;font-variant:normal;font-weight:normal;font-stretch:normal;font-size:medium;line-height:125%;font-family:'Roboto Slab';-inkscape-font-specification:'Roboto Slab';letter-spacing:0px;word-spacing:0px;fill:#000000;fill-opacity:1;stroke:none;stroke-width:1px;stroke-linecap:butt;stroke-linejoin:miter;stroke-opacity:1"
         id="path4901"
         inkscape:connector-curvature="0" />
      <path
         d="m 538.03043,541.40599 0,-0.64959 1.73393,0 0.0972,0.80303 q 0.23528,-0.42453 0.57798,-0.66493 0.3478,-0.24039 0.79279,-0.24039 0.11765,0 0.2404,0.0205 0.12787,0.0154 0.19437,0.0358 l -0.13299,0.93601 -0.57286,-0.0307 q -0.39896,0 -0.67004,0.18925 -0.27109,0.18414 -0.41942,0.52172 l 0,3.17631 0.83372,0.14321 0,0.64447 -2.67506,0 0,-0.64447 0.83372,-0.14321 0,-3.95377 -0.83372,-0.14321 z"
         style="font-style:normal;font-variant:normal;font-weight:normal;font-stretch:normal;font-size:medium;line-height:125%;font-family:'Roboto Slab';-inkscape-font-specification:'Roboto Slab';letter-spacing:0px;word-spacing:0px;fill:#000000;fill-opacity:1;stroke:none;stroke-width:1px;stroke-linecap:butt;stroke-linejoin:miter;stroke-opacity:1"
         id="path4903"
         inkscape:connector-curvature="0" />
      <path
         d="m 542.3678,545.64618 0.83372,-0.14321 0,-3.95377 -0.83372,-0.14321 0,-0.64959 1.84134,0 0,4.74657 0.83372,0.14321 0,0.64447 -2.67506,0 0,-0.64447 z m 1.84134,-6.30659 -1.00762,0 0,-1.02808 1.00762,0 0,1.02808 z"
         style="font-style:normal;font-variant:normal;font-weight:normal;font-stretch:normal;font-size:medium;line-height:125%;font-family:'Roboto Slab';-inkscape-font-specification:'Roboto Slab';letter-spacing:0px;word-spacing:0px;fill:#000000;fill-opacity:1;stroke:none;stroke-width:1px;stroke-linecap:butt;stroke-linejoin:miter;stroke-opacity:1"
         id="path4905"
         inkscape:connector-curvature="0" />
      <path
         d="m 545.60549,545.64618 0.83372,-0.14321 0,-3.95377 -0.83372,-0.14321 0,-0.64959 1.73904,0 0.0665,0.72119 q 0.26597,-0.39384 0.68539,-0.60866 0.41942,-0.21482 0.97182,-0.21482 0.5524,0 0.94624,0.25574 0.39896,0.25574 0.59844,0.76722 0.26085,-0.47056 0.6905,-0.74676 0.42965,-0.2762 1.00251,-0.2762 0.84906,0 1.34008,0.58309 0.49103,0.57797 0.49103,1.74415 l 0,2.52162 0.83371,0.14321 0,0.64447 -2.68017,0 0,-0.64447 0.83372,-0.14321 0,-2.53185 q 0,-0.81837 -0.28132,-1.15595 -0.28131,-0.34269 -0.83371,-0.34269 -0.52683,0 -0.84907,0.37338 -0.31711,0.36827 -0.36826,0.9309 l 0,2.72621 0.83371,0.14321 0,0.64447 -2.67505,0 0,-0.64447 0.83372,-0.14321 0,-2.53185 q 0,-0.77745 -0.29155,-1.13549 -0.28643,-0.36315 -0.83372,-0.36315 -0.46033,0 -0.75699,0.18925 -0.29666,0.18925 -0.45522,0.53194 l 0,3.3093 0.83371,0.14321 0,0.64447 -2.67505,0 0,-0.64447 z"
         style="font-style:normal;font-variant:normal;font-weight:normal;font-stretch:normal;font-size:medium;line-height:125%;font-family:'Roboto Slab';-inkscape-font-specification:'Roboto Slab';letter-spacing:0px;word-spacing:0px;fill:#000000;fill-opacity:1;stroke:none;stroke-width:1px;stroke-linecap:butt;stroke-linejoin:miter;stroke-opacity:1"
         id="path4907"
         inkscape:connector-curvature="0" />
      <path
         d="m 555.67149,543.47238 q 0,-1.22756 0.66492,-2.02036 0.66493,-0.79791 1.80554,-0.79791 1.14572,0 1.81065,0.79279 0.67004,0.7928 0.67004,2.02548 l 0,0.11252 q 0,1.23779 -0.66493,2.02548 -0.66492,0.78768 -1.80553,0.78768 -1.15084,0 -1.81577,-0.78768 -0.66492,-0.7928 -0.66492,-2.02548 l 0,-0.11252 z m 1.00762,0.11252 q 0,0.87975 0.36827,1.45262 0.37338,0.57286 1.1048,0.57286 0.71608,0 1.08946,-0.57286 0.37338,-0.57287 0.37338,-1.45262 l 0,-0.11252 q 0,-0.86952 -0.37338,-1.4475 -0.37338,-0.57798 -1.09969,-0.57798 -0.72631,0 -1.09457,0.57798 -0.36827,0.57798 -0.36827,1.4475 l 0,0.11252 z"
         style="font-style:normal;font-variant:normal;font-weight:normal;font-stretch:normal;font-size:medium;line-height:125%;font-family:'Roboto Slab';-inkscape-font-specification:'Roboto Slab';letter-spacing:0px;word-spacing:0px;fill:#000000;fill-opacity:1;stroke:none;stroke-width:1px;stroke-linecap:butt;stroke-linejoin:miter;stroke-opacity:1"
         id="path4909"
         inkscape:connector-curvature="0" />
      <path
         d="m 561.5382,545.64618 0.83371,-0.14321 0,-3.95377 -0.83371,-0.14321 0,-0.64959 1.84134,0 0,4.74657 0.83371,0.14321 0,0.64447 -2.67505,0 0,-0.64447 z m 1.84134,-6.30659 -1.00763,0 0,-1.02808 1.00763,0 0,1.02808 z"
         style="font-style:normal;font-variant:normal;font-weight:normal;font-stretch:normal;font-size:medium;line-height:125%;font-family:'Roboto Slab';-inkscape-font-specification:'Roboto Slab';letter-spacing:0px;word-spacing:0px;fill:#000000;fill-opacity:1;stroke:none;stroke-width:1px;stroke-linecap:butt;stroke-linejoin:miter;stroke-opacity:1"
         id="path4911"
         inkscape:connector-curvature="0" />
      <path
         d="m 564.97536,541.40599 0,-0.64959 1.73393,0 0.0972,0.80303 q 0.23528,-0.42453 0.57798,-0.66493 0.34781,-0.24039 0.7928,-0.24039 0.11764,0 0.24039,0.0205 0.12787,0.0154 0.19437,0.0358 l -0.13299,0.93601 -0.57286,-0.0307 q -0.39896,0 -0.67004,0.18925 -0.27109,0.18414 -0.41942,0.52172 l 0,3.17631 0.83372,0.14321 0,0.64447 -2.67506,0 0,-0.64447 0.83372,-0.14321 0,-3.95377 -0.83372,-0.14321 z"
         style="font-style:normal;font-variant:normal;font-weight:normal;font-stretch:normal;font-size:medium;line-height:125%;font-family:'Roboto Slab';-inkscape-font-specification:'Roboto Slab';letter-spacing:0px;word-spacing:0px;fill:#000000;fill-opacity:1;stroke:none;stroke-width:1px;stroke-linecap:butt;stroke-linejoin:miter;stroke-opacity:1"
         id="path4913"
         inkscape:connector-curvature="0" />
      <path
         d="m 571.73716,546.39806 q -1.15595,0 -1.84133,-0.76722 -0.68028,-0.77234 -0.68028,-1.9999 l 0,-0.22506 q 0,-1.18152 0.70074,-1.96409 0.70584,-0.78768 1.66743,-0.78768 1.11503,0 1.68789,0.67515 0.57798,0.67516 0.57798,1.80042 l 0,0.62913 -3.59061,0 -0.0153,0.0256 q 0.0153,0.79792 0.40408,1.31451 0.38872,0.51149 1.08945,0.51149 0.51149,0 0.8951,-0.14322 0.38873,-0.14833 0.67004,-0.40407 l 0.39385,0.6547 q -0.29666,0.28643 -0.78769,0.48591 -0.48591,0.19436 -1.1713,0.19436 z m -0.15344,-4.95116 q -0.50637,0 -0.86441,0.42965 -0.35803,0.42453 -0.43987,1.069 l 0.0102,0.0256 2.5523,0 0,-0.13298 q 0,-0.59332 -0.31712,-0.99228 -0.31712,-0.39896 -0.94113,-0.39896 z"
         style="font-style:normal;font-variant:normal;font-weight:normal;font-stretch:normal;font-size:medium;line-height:125%;font-family:'Roboto Slab';-inkscape-font-specification:'Roboto Slab';letter-spacing:0px;word-spacing:0px;fill:#000000;fill-opacity:1;stroke:none;stroke-width:1px;stroke-linecap:butt;stroke-linejoin:miter;stroke-opacity:1"
         id="path4915"
         inkscape:connector-curvature="0" />
    </g>
  </g>
</svg>
